# xmcd
#
# Track frame offsets:
#	150
#	31814
#	45896
#	55434
#	69294
#	84483
#	96474
#	110745
#	131070
#	145327
#	168663
#	192357
#	201480
#	217462
#	230646
#	243198
#
# Disc length: 3537 seconds
#
# Revision: 1
# Processed by: cddbd v1.4PL0 Copyright (c) Steve Scherf et al.
# Submitted via: audiograbber 1.81.03
#
DISCID=f60dcf10
DTITLE=Various Artist - Best of the Blues disc 3
DYEAR=2000
DGENRE=Blues
TTITLE0=Cannonball Adderly - Cannon's Blues
TTITLE1=Charles Brown - Black Night
TTITLE2=Canned Heat - Big Road Blues
TTITLE3=Ray Charles - Late In The Evening Blues
TTITLE4=Pee Wee Crayton - Blues After Hours
TTITLE5=Bo Diddley - Walkin' And Talkin'
TTITLE6=Dr. John - Loser For You Baby
TTITLE7=Buddy Guy and Junior Wells - Every Day I Have The Blues
TTITLE8=Billie Holiday - Billie's Blues
TTITLE9=Lightnin' Hopkins - Last Night
TTITLE10=BB King - You've Done Lost Your Good Thing Now
TTITLE11=Big Maybelle - Put Yourself In My Place
TTITLE12=Memphis Slim - 44 Blues
TTITLE13=Roy Milton - I Got A Big Fat Mama
TTITLE14=Ike and Tina Turner - Poor Fool
TTITLE15=Big Joe Turner - Wee Baby Blues
EXTD=
EXTT0=
EXTT1=
EXTT2=
EXTT3=
EXTT4=
EXTT5=
EXTT6=
EXTT7=
EXTT8=
EXTT9=
EXTT10=
EXTT11=
EXTT12=
EXTT13=
EXTT14=
EXTT15=
PLAYORDER=
